<svg id="Capa_1" data-name="Capa 1" xmlns="http://www.w3.org/2000/svg" xmlns:xlink="http://www.w3.org/1999/xlink" viewBox="0 0 50 50"><defs><style>.cls-1{fill:url(#linear-gradient);}.cls-2{fill:url(#linear-gradient-2);}.cls-3{fill:url(#linear-gradient-3);}.cls-4{fill:url(#linear-gradient-4);}.cls-5{fill:url(#linear-gradient-5);}.cls-6{fill:url(#linear-gradient-6);}.cls-7{fill:url(#linear-gradient-7);}</style><linearGradient id="linear-gradient" x1="14.85" y1="31.99" x2="44.91" y2="31.99" gradientUnits="userSpaceOnUse"><stop offset="0" stop-color="#414e93"/><stop offset="0.02" stop-color="#404f94"/><stop offset="0.31" stop-color="#2f61a1"/><stop offset="0.53" stop-color="#2967a6"/><stop offset="0.81" stop-color="#2b65a5"/><stop offset="0.91" stop-color="#315e9f"/><stop offset="0.98" stop-color="#3d5396"/><stop offset="1" stop-color="#414e93"/></linearGradient><linearGradient id="linear-gradient-2" x1="19.55" y1="35.86" x2="21.5" y2="35.86" xlink:href="#linear-gradient"/><linearGradient id="linear-gradient-3" x1="39.52" y1="35.87" x2="43.2" y2="35.87" xlink:href="#linear-gradient"/><linearGradient id="linear-gradient-4" x1="4.5" y1="17.63" x2="24.81" y2="17.63" xlink:href="#linear-gradient"/><linearGradient id="linear-gradient-5" x1="4.5" y1="39.49" x2="45.4" y2="39.49" xlink:href="#linear-gradient"/><linearGradient id="linear-gradient-6" x1="25.67" y1="28.18" x2="39.26" y2="28.18" xlink:href="#linear-gradient"/><linearGradient id="linear-gradient-7" x1="25.67" y1="17.83" x2="45.5" y2="17.83" xlink:href="#linear-gradient"/></defs><path class="cls-1" d="M44.91,33V31a.65.65,0,0,0-.64-.65H15.49a.65.65,0,0,0-.64.65V33a.64.64,0,0,0,.64.64H44.27a.64.64,0,0,0,.64-.64Z"/><path class="cls-2" d="M21.5,37.16v-2.6H19.55a1.53,1.53,0,0,1,.19.73,1.86,1.86,0,0,0,1.76,1.87Z"/><path class="cls-3" d="M41.59,37.17l.36,0a1.9,1.9,0,0,0,1.25-.9V34.56H39.52a1.53,1.53,0,0,1,.19.73,1.88,1.88,0,0,0,1.88,1.88Z"/><path class="cls-4" d="M7.22,24.36A2.72,2.72,0,0,0,7.7,19V17.77h.78A.49.49,0,0,0,9,17.28a.48.48,0,0,0-.48-.48H7.7v-5a3,3,0,0,0,.74.28c3,6.3-1.73-3.65,8,16.85h0l.22.46h1.08L17.55,29l-.08-.16,3-4.36,3.23,5h1.15C14.25,13.11,17.1,17.51,12.24,10a3.19,3.19,0,1,0-5.82.59,3.58,3.58,0,0,0,.31.45V16.8H6a.48.48,0,0,0-.49.48.49.49,0,0,0,.49.49h.69v1.64a.49.49,0,0,0,.49.48,1.75,1.75,0,1,1-1.75,1.75.49.49,0,0,0-1,0,2.72,2.72,0,0,0,2.72,2.72Zm12.63-.81L17,27.78l-2.11-4.44,4.7-.21ZM19,22.18l-4.55.21-.14-.3,2.37-3.48Zm-2.89-4.46L13.8,21.08l-1.92-4,3.67-.17ZM14.94,16l-3.51.16-.34-.72,1.78-2.63Zm-3.68-4.51s.34-.35.46-.47l.59.91-1.71,2.5-1-2.2a3.32,3.32,0,0,0,1.7-.74Z"/><path class="cls-5" d="M44.91,34.81a.49.49,0,0,0-.48.48,2.86,2.86,0,0,1-2.3,2.8,3.1,3.1,0,0,1-.54,0,2.85,2.85,0,0,1-2.84-2.85.49.49,0,0,0-1,0,2.85,2.85,0,1,1-5.69,0,.49.49,0,0,0-1,0,2.85,2.85,0,1,1-5.69,0,.49.49,0,0,0-1,0,2.85,2.85,0,0,1-2.84,2.85v.48l-.11-.49a2.82,2.82,0,0,1-2.73-2.84.49.49,0,0,0-1,0,2.91,2.91,0,0,1-.65,1.82,2.84,2.84,0,0,1-5-1.82.49.49,0,0,0-1,0,2.85,2.85,0,1,1-5.69,0,.49.49,0,0,0-1,0v8.39a.49.49,0,0,0,.48.48H44.91a.49.49,0,0,0,.49-.48V35.29a.49.49,0,0,0-.49-.48Z"/><path class="cls-6" d="M25.67,26.93H39.26v2.49H25.67Z"/><path class="cls-7" d="M39.26,16.55a.46.46,0,0,0-.15-.34L33.5,10.66h9.57v4.69a1.95,1.95,0,1,0,2.43,1.89.49.49,0,0,0-1,0,1,1,0,1,1-1-1,.48.48,0,0,0,.48-.49V10.18a.48.48,0,0,0-.48-.49H26.16a.49.49,0,0,0-.49.49V26H39.26Zm-2.92,2.28H28.59V12.61h2.74l5,5Z"/></svg>