<svg id="Capa_1" data-name="Capa 1" xmlns="http://www.w3.org/2000/svg" xmlns:xlink="http://www.w3.org/1999/xlink" viewBox="0 0 50 50"><defs><style>.cls-1{fill:url(#linear-gradient);}.cls-2{fill:url(#linear-gradient-2);}.cls-3{fill:url(#linear-gradient-3);}.cls-4{fill:url(#linear-gradient-4);}</style><linearGradient id="linear-gradient" x1="4.12" y1="15.43" x2="26.74" y2="15.43" gradientUnits="userSpaceOnUse"><stop offset="0" stop-color="#414e93"/><stop offset="0.02" stop-color="#404f94"/><stop offset="0.31" stop-color="#2f61a1"/><stop offset="0.53" stop-color="#2967a6"/><stop offset="0.81" stop-color="#2b65a5"/><stop offset="0.91" stop-color="#315e9f"/><stop offset="0.98" stop-color="#3d5396"/><stop offset="1" stop-color="#414e93"/></linearGradient><linearGradient id="linear-gradient-2" x1="23.26" y1="34.57" x2="45.88" y2="34.57" xlink:href="#linear-gradient"/><linearGradient id="linear-gradient-3" x1="5.36" y1="34.73" x2="24.22" y2="34.73" xlink:href="#linear-gradient"/><linearGradient id="linear-gradient-4" x1="25.9" y1="14.18" x2="44.76" y2="14.18" xlink:href="#linear-gradient"/></defs><path class="cls-1" d="M15.43,26.74A11.31,11.31,0,1,0,4.12,15.43,11.32,11.32,0,0,0,15.43,26.74Zm-3.91-8.63,3-3V10.62a.87.87,0,1,1,1.74,0v4.81a.9.9,0,0,1-.25.62l-3.29,3.29a.89.89,0,0,1-.62.25.87.87,0,0,1-.62-1.48Z"/><path class="cls-2" d="M45.16,36.93a.87.87,0,0,0,.72-.85v-3a.87.87,0,0,0-.72-.85l-2.56-.44a6,6,0,0,0-.37-.91l1.49-2.12a.86.86,0,0,0-.09-1.11l-2.12-2.13a.86.86,0,0,0-1.11-.09L38.3,26.9c-.3-.14-.61-.27-.94-.39L36.93,24a.87.87,0,0,0-.86-.72h-3a.87.87,0,0,0-.85.72l-.43,2.53c-.33.12-.64.25-.94.39l-2.1-1.48a.86.86,0,0,0-1.11.09l-2.12,2.13a.86.86,0,0,0-.09,1.11l1.49,2.12a7.22,7.22,0,0,0-.37.91L24,32.22a.87.87,0,0,0-.72.85v3a.87.87,0,0,0,.72.85l2.6.44q.17.45.36.87L25.43,40.4a.86.86,0,0,0,.09,1.11l2.12,2.12a.86.86,0,0,0,1.11.09l2.17-1.53a6.32,6.32,0,0,0,.85.35l.45,2.62a.87.87,0,0,0,.85.72h3a.87.87,0,0,0,.86-.72l.45-2.62a6.32,6.32,0,0,0,.85-.35l2.17,1.53a.86.86,0,0,0,1.11-.09l2.12-2.12a.86.86,0,0,0,.09-1.11l-1.51-2.16q.2-.42.36-.87ZM34.57,39.1a4.53,4.53,0,1,1,4.52-4.53A4.53,4.53,0,0,1,34.57,39.1Z"/><path class="cls-3" d="M14.92,31.42a.87.87,0,0,0-.49-.83L9.11,28.08a.86.86,0,0,0-.67,0,.82.82,0,0,0-.49.44l-2.5,5.32a.84.84,0,0,0,.14.95.89.89,0,0,0,.94.24L8,34.46a13.83,13.83,0,0,0,12,7,14.59,14.59,0,0,0,3.5-.44.89.89,0,0,0,.65-1,.87.87,0,0,0-.9-.75,10.22,10.22,0,0,1-10.37-6.62l1.4-.49a.88.88,0,0,0,.58-.78Z"/><path class="cls-4" d="M26.81,9.6a10.2,10.2,0,0,1,10.36,6.62l-1.4.5a.85.85,0,0,0-.57.77.89.89,0,0,0,.49.84L41,20.84a.91.91,0,0,0,.37.08.93.93,0,0,0,.29-.05.89.89,0,0,0,.5-.45l2.5-5.31a.87.87,0,0,0-.14-1,.89.89,0,0,0-.94-.24l-1.48.54A13.9,13.9,0,0,0,26.56,7.88a.87.87,0,0,0,.25,1.72Z"/></svg>