<svg id="Capa_1" data-name="Capa 1" xmlns="http://www.w3.org/2000/svg" xmlns:xlink="http://www.w3.org/1999/xlink" viewBox="0 0 50 50"><defs><style>.cls-1{fill:url(#linear-gradient);}.cls-2{fill:url(#linear-gradient-2);}.cls-3{fill:url(#linear-gradient-3);}.cls-4{fill:url(#linear-gradient-4);}.cls-5{fill:url(#linear-gradient-5);}.cls-6{fill:url(#linear-gradient-6);}</style><linearGradient id="linear-gradient" x1="3.94" y1="25.03" x2="46.06" y2="25.03" gradientUnits="userSpaceOnUse"><stop offset="0" stop-color="#414e93"/><stop offset="0.02" stop-color="#404f94"/><stop offset="0.31" stop-color="#2f61a1"/><stop offset="0.53" stop-color="#2967a6"/><stop offset="0.81" stop-color="#2b65a5"/><stop offset="0.91" stop-color="#315e9f"/><stop offset="0.98" stop-color="#3d5396"/><stop offset="1" stop-color="#414e93"/></linearGradient><linearGradient id="linear-gradient-2" x1="25.13" y1="17.71" x2="29.5" y2="17.71" xlink:href="#linear-gradient"/><linearGradient id="linear-gradient-3" x1="25.13" y1="28.93" x2="29.5" y2="28.93" xlink:href="#linear-gradient"/><linearGradient id="linear-gradient-4" x1="25.13" y1="23.35" x2="29.5" y2="23.35" xlink:href="#linear-gradient"/><linearGradient id="linear-gradient-5" x1="25.06" y1="11.81" x2="29.44" y2="11.81" xlink:href="#linear-gradient"/><linearGradient id="linear-gradient-6" x1="25.13" y1="34.13" x2="29.5" y2="34.13" xlink:href="#linear-gradient"/></defs><path class="cls-1" d="M45.42,39.43H44V12c0-2.28-8.18-2.6-13.07-2.6h-.25V39.49H29.44V37.21H25.06v2.28H23.79V9.68c-3.24.32-6,1-6,2.35v27.4H16.56V15.83c-3.68,0-9.45.19-10.72,1.4a.88.88,0,0,0-.31.76V39.37h-1a.6.6,0,0,0-.64.63.6.6,0,0,0,.64.64H45.42a.6.6,0,0,0,.64-.64c0-.38-.25-.57-.64-.57Z"/><path class="cls-2" d="M25.13,15.52H29.5v4.37H25.13Z"/><path class="cls-3" d="M25.13,26.74H29.5v4.38H25.13Z"/><path class="cls-4" d="M25.13,21.16H29.5v4.38H25.13Z"/><path class="cls-5" d="M29.44,9.36c-1.4,0-2.85.07-4.38.2v4.69h4.38Z"/><path class="cls-6" d="M25.13,32.39H29.5v3.49H25.13Z"/></svg>