<svg id="Capa_1" data-name="Capa 1" xmlns="http://www.w3.org/2000/svg" xmlns:xlink="http://www.w3.org/1999/xlink" viewBox="0 0 50 50"><defs><style>.cls-1{fill:url(#linear-gradient);}</style><linearGradient id="linear-gradient" x1="12.5" y1="25" x2="37.5" y2="25" gradientUnits="userSpaceOnUse"><stop offset="0" stop-color="#414e93"/><stop offset="0.02" stop-color="#404f94"/><stop offset="0.31" stop-color="#2f61a1"/><stop offset="0.53" stop-color="#2967a6"/><stop offset="0.81" stop-color="#2b65a5"/><stop offset="0.91" stop-color="#315e9f"/><stop offset="0.98" stop-color="#3d5396"/><stop offset="1" stop-color="#414e93"/></linearGradient></defs><path class="cls-1" d="M35.08,10.89H14.92V7.66a.8.8,0,0,1,.81-.8H34.27a.8.8,0,0,1,.81.8ZM14.92,21.37H35.08v21a.81.81,0,0,1-1.61,0V34.68H27.82v7.66a.8.8,0,0,1-.8.8H23a.8.8,0,0,1-.8-.8V34.68H16.53v7.66a.81.81,0,0,1-1.61,0Zm12.9,11.69h5.65V26a10.12,10.12,0,0,1-5.65,4.23Zm-11.29,0h5.65V30.24A10.12,10.12,0,0,1,16.53,26ZM35.08,12.5H14.92v7.26H35.08Zm1.61,7.26H35.08v1.61h1.61a.81.81,0,1,0,0-1.61Zm-23.38,0a.81.81,0,1,0,0,1.61h1.61V19.76Z"/></svg>