<svg id="Capa_1" data-name="Capa 1" xmlns="http://www.w3.org/2000/svg" xmlns:xlink="http://www.w3.org/1999/xlink" viewBox="0 0 50 50"><defs><style>.cls-1,.cls-2,.cls-3{fill-rule:evenodd;}.cls-1{fill:url(#linear-gradient);}.cls-2{fill:url(#linear-gradient-2);}.cls-3{fill:url(#linear-gradient-3);}</style><linearGradient id="linear-gradient" x1="7.43" y1="37.39" x2="42.57" y2="37.39" gradientUnits="userSpaceOnUse"><stop offset="0" stop-color="#414e93"/><stop offset="0.02" stop-color="#404f94"/><stop offset="0.31" stop-color="#2f61a1"/><stop offset="0.53" stop-color="#2967a6"/><stop offset="0.81" stop-color="#2b65a5"/><stop offset="0.91" stop-color="#315e9f"/><stop offset="0.98" stop-color="#3d5396"/><stop offset="1" stop-color="#414e93"/></linearGradient><linearGradient id="linear-gradient-2" x1="7.43" y1="28.32" x2="42.57" y2="28.32" xlink:href="#linear-gradient"/><linearGradient id="linear-gradient-3" x1="7.43" y1="15.92" x2="42.57" y2="15.92" xlink:href="#linear-gradient"/></defs><path class="cls-1" d="M26.43,37.33l-.18.06a3,3,0,0,1-.89.14h-.18l-.16,0a2.74,2.74,0,0,1-.56-.11l-.1,0-.29-.12-11.73-6L7.85,34a.79.79,0,0,0-.33.3.82.82,0,0,0-.07.53v0a1.17,1.17,0,0,0,.09.24s0,0,0,0v0a.65.65,0,0,0,.12.11.49.49,0,0,0,.13.12h0L25,44.23l.05,0,.24.06h.06a.78.78,0,0,0,.26,0l0,0a1,1,0,0,0,.16-.06l16.37-10,.06-.06.12-.1a1.13,1.13,0,0,0,.1-.13s0,0,0-.07a.15.15,0,0,0,0-.07.42.42,0,0,0,0-.16.77.77,0,0,0,0-.15.8.8,0,0,0,0-.15,1,1,0,0,0,0-.16.64.64,0,0,1,0-.07s0,0,0-.06l-.11-.12a.38.38,0,0,0-.13-.09s0,0-.07-.05l-4.35-2.25L27,37.07a2,2,0,0,1-.56.26Z"/><path class="cls-2" d="M26.44,28.25l-.17.06a3.17,3.17,0,0,1-.93.14h-.13l-.18,0a2.52,2.52,0,0,1-.61-.12l-.09,0-.26-.11-11.72-6-4.5,2.76a.71.71,0,0,0-.32.3.79.79,0,0,0-.08.54v0a.72.72,0,0,0,.1.24s0,0,0,0,0,0,0,0a1.36,1.36,0,0,0,.12.12.69.69,0,0,0,.13.11h0C8.07,26.45,24.76,35,25,35.15l.06,0a.86.86,0,0,0,.23.06h.06a.78.78,0,0,0,.26,0l0,0a.52.52,0,0,0,.16-.06l16.37-10,.06-.05.12-.11a.64.64,0,0,0,.1-.13l0-.06a.64.64,0,0,1,0-.07,1.24,1.24,0,0,0,0-.16c0-.05,0-.11,0-.16a.77.77,0,0,0,0-.15.94.94,0,0,0-.06-.15.64.64,0,0,0,0-.07s0,0,0-.06a.69.69,0,0,0-.11-.13l-.13-.09-.06-.05L37.76,21.4,27,28a2.05,2.05,0,0,1-.56.26Z"/><path class="cls-3" d="M25.05,5.78l-.09,0-.15,0a.55.55,0,0,0-.18,0h-.12a.8.8,0,0,0-.2.07l-.06,0-16.4,10a.82.82,0,0,0-.33.31.81.81,0,0,0-.07.53v0a1,1,0,0,0,.09.24s0,0,0,.06a0,0,0,0,1,0,0,.46.46,0,0,0,.12.12.69.69,0,0,0,.13.11h0C8.07,17.37,24.76,26,25,26.08H25a1.05,1.05,0,0,0,.24.06h.06a.78.78,0,0,0,.26,0h0A.56.56,0,0,0,25.8,26L42.17,16l.06-.05.12-.11a.64.64,0,0,0,.1-.13l0-.06s0-.05,0-.07,0-.11,0-.16,0-.1,0-.16a.89.89,0,0,0,0-.14.75.75,0,0,0,0-.16.64.64,0,0,0,0-.07l0-.06a.65.65,0,0,0-.11-.12l-.13-.1-.06,0Z"/></svg>