<?xml version="1.0" encoding="utf-8"?>
<!-- Generator: Adobe Illustrator 25.4.1, SVG Export Plug-In . SVG Version: 6.00 Build 0)  -->
<svg version="1.1" id="Capa_1" xmlns="http://www.w3.org/2000/svg" xmlns:xlink="http://www.w3.org/1999/xlink" x="0px" y="0px"
	 viewBox="0 0 150 60" style="enable-background:new 0 0 150 60;" xml:space="preserve">
<style type="text/css">
	.st0{fill:#FFFFFF;}
</style>
<g>
	<rect x="132.8" y="46.6" class="st0" width="13.6" height="0.7"/>
	<rect x="44.6" y="46.6" class="st0" width="13.6" height="0.7"/>
	<g>
		<g>
			<path class="st0" d="M67.3,47c-0.1,0.1-0.2,0.3-0.2,0.5v1.8c-0.3,0.2-0.7,0.4-1.1,0.4c-0.4,0.1-0.8,0.1-1.2,0.1
				c-0.4,0-0.8-0.1-1.2-0.2c-0.4-0.1-0.7-0.3-1-0.6c-0.3-0.2-0.5-0.5-0.7-0.9c-0.2-0.3-0.3-0.7-0.3-1.2c0-0.4,0.1-0.9,0.2-1.2
				c0.2-0.4,0.4-0.7,0.7-1c0.3-0.3,0.6-0.5,1-0.7c0.4-0.2,0.8-0.2,1.3-0.2c0.2,0,0.4,0,0.6,0.1c0.2,0,0.4,0.1,0.5,0.1
				c0.1,0,0.2,0.1,0.3,0.1c0.1,0.1,0.2,0.1,0.3,0.1c0.1,0,0.2,0,0.2-0.1c0.1-0.1,0.1-0.1,0.1-0.2h0.1l0.1,1.8l-0.1,0
				c-0.2-0.5-0.4-0.8-0.8-1.1c-0.4-0.3-0.8-0.4-1.3-0.4c-0.4,0-0.7,0.1-1,0.2c-0.3,0.1-0.5,0.3-0.7,0.6c-0.2,0.2-0.3,0.5-0.4,0.8
				c-0.1,0.3-0.2,0.6-0.2,1c0,0.4,0,0.7,0.1,1c0.1,0.3,0.2,0.6,0.4,0.9c0.2,0.3,0.4,0.5,0.7,0.6c0.3,0.2,0.6,0.2,1,0.2
				c0.2,0,0.4,0,0.6-0.1c0.2-0.1,0.4-0.2,0.6-0.3v-2.5h1.6v0.1C67.5,46.8,67.4,46.9,67.3,47z"/>
			<path class="st0" d="M72.3,49.9h-3.6v-5.1c0-0.1,0-0.3-0.1-0.3c0-0.1-0.1-0.1-0.2-0.2c-0.1,0-0.1-0.1-0.2-0.1c-0.1,0-0.2,0-0.3,0
				V44c0.1,0,0.3,0,0.5,0c0.2,0,0.4,0,0.5,0c0.2,0,0.3,0,0.4,0h0.2v0.8V49c0,0.2,0,0.3,0.1,0.4c0.1,0.1,0.2,0.1,0.4,0.1h1.1
				c0.4,0,0.7-0.1,1-0.3c0.2-0.2,0.4-0.5,0.6-0.9l0.1,0L72.3,49.9z"/>
			<path class="st0" d="M78.6,48.1c-0.1,0.4-0.3,0.7-0.6,0.9c-0.2,0.3-0.5,0.5-0.9,0.6c-0.3,0.2-0.7,0.2-1.1,0.2
				c-0.4,0-0.8-0.1-1.1-0.2c-0.3-0.2-0.6-0.4-0.9-0.7c-0.2-0.3-0.4-0.6-0.5-0.9c-0.1-0.4-0.2-0.7-0.2-1.1c0-0.4,0.1-0.8,0.2-1.2
				c0.1-0.4,0.3-0.7,0.6-0.9c0.2-0.3,0.5-0.5,0.9-0.6c0.3-0.2,0.7-0.2,1.2-0.2c0.4,0,0.8,0.1,1.1,0.2c0.3,0.2,0.6,0.4,0.9,0.7
				c0.2,0.3,0.4,0.6,0.5,1c0.1,0.4,0.2,0.7,0.2,1.1C78.8,47.4,78.8,47.7,78.6,48.1z M77.8,46.1c-0.1-0.3-0.2-0.6-0.3-0.9
				c-0.1-0.3-0.3-0.5-0.5-0.7c-0.2-0.2-0.5-0.3-0.9-0.3c-0.3,0-0.6,0.1-0.9,0.3c-0.2,0.2-0.4,0.4-0.5,0.7c-0.1,0.3-0.2,0.6-0.3,0.9
				c-0.1,0.3-0.1,0.6-0.1,0.9c0,0.3,0,0.6,0.1,0.9c0.1,0.3,0.2,0.6,0.3,0.9c0.1,0.3,0.3,0.5,0.5,0.7c0.2,0.2,0.5,0.3,0.9,0.3
				c0.3,0,0.6-0.1,0.9-0.3c0.2-0.2,0.4-0.4,0.5-0.7c0.1-0.3,0.2-0.6,0.3-0.9c0.1-0.3,0.1-0.6,0.1-0.9h0
				C77.9,46.7,77.8,46.4,77.8,46.1z"/>
			<path class="st0" d="M83.4,49c-0.1,0.2-0.3,0.4-0.5,0.5c-0.2,0.1-0.4,0.2-0.7,0.3c-0.3,0.1-0.5,0.1-0.8,0.1h-1.7v-5.4
				c0-0.1,0-0.2-0.1-0.2c-0.1,0-0.1-0.1-0.2-0.1c-0.1,0-0.2,0-0.3,0c-0.1,0-0.2,0-0.2,0V44h2.3c0.2,0,0.3,0,0.5,0
				c0.2,0,0.3,0,0.5,0.1c0.2,0,0.3,0.1,0.5,0.2c0.2,0.1,0.3,0.2,0.4,0.3c0.1,0.1,0.2,0.2,0.3,0.4c0.1,0.1,0.1,0.3,0.1,0.5
				c0,0.3-0.1,0.6-0.3,0.9c-0.2,0.2-0.4,0.4-0.8,0.5c0.2,0,0.3,0.1,0.5,0.2c0.2,0.1,0.3,0.2,0.4,0.3c0.1,0.1,0.2,0.3,0.3,0.4
				c0.1,0.2,0.1,0.3,0.1,0.5C83.6,48.6,83.6,48.8,83.4,49z M82.5,47.7c-0.1-0.2-0.2-0.3-0.3-0.4c-0.1-0.1-0.3-0.2-0.5-0.2
				C81.5,47,81.3,47,81.1,47c-0.1,0-0.2,0-0.2,0c-0.1,0-0.2,0-0.2,0v2.2c0,0.1,0.1,0.1,0.1,0.2c0.1,0,0.1,0.1,0.2,0.1
				c0.1,0,0.1,0,0.2,0.1c0.1,0,0.1,0,0.2,0c0.4,0,0.7-0.1,0.9-0.3c0.2-0.2,0.4-0.5,0.4-0.9C82.6,48,82.5,47.9,82.5,47.7z M82.3,45
				c-0.1-0.2-0.2-0.3-0.3-0.4c-0.1-0.1-0.3-0.2-0.4-0.2c-0.2-0.1-0.3-0.1-0.5-0.1c-0.1,0-0.1,0-0.2,0c-0.1,0-0.1,0-0.2,0v2.3
				c0.1,0,0.2,0,0.3,0.1c0.1,0,0.2,0,0.3,0c0.4,0,0.7-0.1,0.9-0.3c0.2-0.2,0.3-0.5,0.3-0.9C82.5,45.3,82.4,45.1,82.3,45z"/>
			<path class="st0" d="M88.2,49.9c-0.1-0.3-0.3-0.6-0.4-1c-0.1-0.3-0.3-0.6-0.4-1h-2.1c0,0,0,0.1-0.1,0.1c0,0.1-0.1,0.2-0.1,0.3
				c0,0.1-0.1,0.2-0.1,0.3c0,0.1-0.1,0.2-0.1,0.3c0,0.1-0.1,0.2-0.1,0.3c0,0.1,0,0.2,0,0.2c0,0.1,0,0.1,0.1,0.2c0,0,0.1,0.1,0.2,0.1
				c0.1,0,0.1,0,0.2,0c0.1,0,0.1,0,0.2,0v0.1h-1.6v-0.1c0.1,0,0.2,0,0.3-0.1c0.1,0,0.1-0.1,0.2-0.1c0-0.1,0.1-0.1,0.1-0.2
				c0-0.1,0.1-0.2,0.1-0.2l2.2-5.2l0.1,0l2.5,5.9H88.2z M86.4,45.4l-1,2.2h1.9L86.4,45.4z"/>
			<path class="st0" d="M93.7,49.9h-3.6v-5.1c0-0.1,0-0.3-0.1-0.3c0-0.1-0.1-0.1-0.2-0.2c-0.1,0-0.1-0.1-0.2-0.1c-0.1,0-0.2,0-0.3,0
				V44c0.1,0,0.3,0,0.5,0c0.2,0,0.4,0,0.5,0c0.2,0,0.3,0,0.4,0h0.2v0.8V49c0,0.2,0,0.3,0.1,0.4c0.1,0.1,0.2,0.1,0.4,0.1h1.1
				c0.4,0,0.7-0.1,1-0.3c0.2-0.2,0.4-0.5,0.6-0.9l0.1,0L93.7,49.9z"/>
			<path class="st0" d="M101.2,49.9h-3.7v-5.1c0-0.1,0-0.3,0-0.3c0-0.1-0.1-0.1-0.1-0.2c-0.1,0-0.1-0.1-0.2-0.1c-0.1,0-0.2,0-0.3,0
				V44h4.4v1.3H101c0-0.2,0-0.3-0.1-0.5c-0.1-0.1-0.1-0.2-0.3-0.3c-0.1-0.1-0.2-0.1-0.4-0.2c-0.1,0-0.3,0-0.4,0h-1.5v2.3h1.2
				c0.2,0,0.3,0,0.4,0c0.1,0,0.2-0.1,0.3-0.1c0.1-0.1,0.1-0.2,0.2-0.3c0-0.1,0.1-0.3,0.1-0.4h0.1v2h-0.1c0-0.3,0-0.6-0.2-0.7
				c-0.1-0.1-0.4-0.2-0.7-0.2h-1.3v2.4c0,0.1,0,0.1,0.1,0.2c0,0.1,0.1,0.1,0.2,0.1c0.2,0,0.5,0,0.7,0c0.2,0,0.4,0,0.7,0
				c0.2,0,0.5,0,0.6,0c0.2,0,0.3-0.1,0.4-0.2c0.1-0.1,0.2-0.2,0.3-0.3c0.1-0.1,0.2-0.3,0.3-0.5l0.1,0L101.2,49.9z"/>
			<path class="st0" d="M107.6,44.1c-0.1,0-0.2,0-0.3,0.1c-0.1,0-0.1,0.1-0.2,0.2c0,0.1-0.1,0.2-0.1,0.3V50H107l-4-4.9v4.8h-0.3
				v-5.1c-0.1-0.2-0.3-0.3-0.4-0.4c-0.2-0.1-0.4-0.2-0.6-0.2V44h1.6l3.5,4.3l0-4.3l1.2,0v0.1C107.8,44.1,107.7,44.1,107.6,44.1z"/>
			<path class="st0" d="M112.6,49.9h-3.7v-5.1c0-0.1,0-0.3,0-0.3c0-0.1-0.1-0.1-0.1-0.2c-0.1,0-0.1-0.1-0.2-0.1c-0.1,0-0.2,0-0.3,0
				V44h4.4v1.3h-0.1c0-0.2,0-0.3-0.1-0.5c-0.1-0.1-0.1-0.2-0.3-0.3c-0.1-0.1-0.2-0.1-0.4-0.2c-0.1,0-0.3,0-0.4,0h-1.5v2.3h1.2
				c0.2,0,0.3,0,0.4,0c0.1,0,0.2-0.1,0.3-0.1c0.1-0.1,0.1-0.2,0.2-0.3c0-0.1,0.1-0.3,0.1-0.4h0.1v2H112c0-0.3,0-0.6-0.2-0.7
				c-0.1-0.1-0.4-0.2-0.7-0.2h-1.3v2.4c0,0.1,0,0.1,0.1,0.2c0,0.1,0.1,0.1,0.2,0.1c0.2,0,0.5,0,0.7,0c0.2,0,0.4,0,0.7,0
				c0.2,0,0.5,0,0.6,0c0.2,0,0.3-0.1,0.4-0.2c0.1-0.1,0.2-0.2,0.3-0.3c0.1-0.1,0.2-0.3,0.3-0.5l0.1,0L112.6,49.9z"/>
			<path class="st0" d="M118.5,50c-0.1,0-0.2,0-0.3,0c-0.1,0-0.2-0.1-0.2-0.1c-0.1,0-0.1-0.1-0.2-0.2c-0.1-0.1-0.1-0.1-0.2-0.2
				l-1.8-2.3h-0.2h-0.3v2.8h-1.6v-0.1c0.1,0,0.2,0,0.3,0c0.1,0,0.2,0,0.2-0.1c0.1,0,0.1-0.1,0.2-0.2c0-0.1,0.1-0.2,0.1-0.3v-4.6
				c0-0.1,0-0.2-0.1-0.3c0-0.1-0.1-0.1-0.2-0.2c-0.1,0-0.2-0.1-0.2-0.1c-0.1,0-0.2,0-0.3,0V44h2.5c0.2,0,0.5,0,0.7,0.1
				c0.2,0,0.4,0.1,0.6,0.2c0.2,0.1,0.3,0.3,0.4,0.5c0.1,0.2,0.2,0.4,0.2,0.7c0,0.2,0,0.4-0.1,0.6c-0.1,0.2-0.2,0.3-0.3,0.4
				c-0.1,0.1-0.3,0.2-0.5,0.3c-0.2,0.1-0.4,0.1-0.6,0.2l1.6,2.1c0.1,0.2,0.3,0.3,0.4,0.5c0.2,0.1,0.4,0.2,0.6,0.2v0.1
				C119,49.9,118.7,50,118.5,50z M117,45c-0.1-0.2-0.1-0.3-0.3-0.4c-0.1-0.1-0.2-0.2-0.4-0.3c-0.2-0.1-0.3-0.1-0.5-0.1
				c-0.1,0-0.2,0-0.3,0c-0.1,0-0.2,0.1-0.3,0.1v2.4c0,0,0.1,0,0.1,0c0,0,0.1,0,0.1,0c0.2,0,0.4,0,0.6-0.1c0.2,0,0.4-0.1,0.5-0.2
				c0.2-0.1,0.3-0.2,0.4-0.4c0.1-0.2,0.1-0.4,0.1-0.6C117.1,45.4,117,45.2,117,45z"/>
			<path class="st0" d="M124.3,47c-0.1,0.1-0.2,0.3-0.2,0.5v1.8c-0.3,0.2-0.7,0.4-1.1,0.4c-0.4,0.1-0.8,0.1-1.2,0.1
				c-0.4,0-0.8-0.1-1.2-0.2c-0.4-0.1-0.7-0.3-1-0.6c-0.3-0.2-0.5-0.5-0.7-0.9c-0.2-0.3-0.3-0.7-0.3-1.2c0-0.4,0.1-0.9,0.2-1.2
				c0.2-0.4,0.4-0.7,0.7-1c0.3-0.3,0.6-0.5,1-0.7c0.4-0.2,0.8-0.2,1.3-0.2c0.2,0,0.4,0,0.6,0.1c0.2,0,0.4,0.1,0.5,0.1
				c0.1,0,0.2,0.1,0.3,0.1c0.1,0.1,0.2,0.1,0.3,0.1c0.1,0,0.2,0,0.2-0.1c0.1-0.1,0.1-0.1,0.1-0.2h0.1l0.1,1.8l-0.1,0
				c-0.2-0.5-0.4-0.8-0.8-1.1c-0.4-0.3-0.8-0.4-1.3-0.4c-0.4,0-0.7,0.1-1,0.2c-0.3,0.1-0.5,0.3-0.7,0.6c-0.2,0.2-0.3,0.5-0.4,0.8
				c-0.1,0.3-0.2,0.6-0.2,1c0,0.4,0,0.7,0.1,1c0.1,0.3,0.2,0.6,0.4,0.9c0.2,0.3,0.4,0.5,0.7,0.6c0.3,0.2,0.6,0.2,1,0.2
				c0.2,0,0.4,0,0.6-0.1c0.2-0.1,0.4-0.2,0.6-0.3v-2.5h1.6v0.1C124.6,46.8,124.4,46.9,124.3,47z"/>
			<path class="st0" d="M130.5,44.2c-0.1,0-0.2,0.1-0.3,0.1c-0.1,0.1-0.1,0.1-0.2,0.2c-0.1,0.1-0.1,0.2-0.2,0.3l-1.6,2.6v2.5h-0.9
				v-2.5l-1.6-2.6c-0.1-0.1-0.1-0.2-0.2-0.3c-0.1-0.1-0.1-0.1-0.2-0.2c-0.1-0.1-0.2-0.1-0.2-0.1c-0.1,0-0.2,0-0.3,0V44l1.6,0
				c0.2,0.3,0.3,0.5,0.4,0.7c0.1,0.2,0.2,0.4,0.4,0.7c0.1,0.2,0.3,0.5,0.4,0.7c0.1,0.2,0.2,0.4,0.3,0.5c0.1,0.2,0.1,0.2,0.1,0.3
				c0,0,0.1-0.1,0.1-0.2c0.1-0.1,0.2-0.3,0.3-0.4c0.1-0.2,0.2-0.4,0.3-0.6c0.1-0.2,0.2-0.4,0.3-0.6c0.1-0.2,0.2-0.3,0.3-0.5
				c0.1-0.1,0.1-0.2,0.1-0.3c0-0.1,0-0.1-0.1-0.2c0,0-0.1-0.1-0.2-0.1c-0.1,0-0.1,0-0.2,0s-0.1,0-0.2,0V44h1.9v0.1
				C130.7,44.1,130.6,44.1,130.5,44.2z"/>
		</g>
		<g>
			<path class="st0" d="M61.8,24.5L61.4,21h-6.3v19.1h-3V21h-2.8c-0.6,0-1.1,0.1-1.6,0.2c-0.5,0.1-0.9,0.3-1.3,0.6
				c-0.4,0.3-0.7,0.6-0.9,1.1c-0.2,0.4-0.3,1-0.3,1.7h-0.4l0.3-4.6h16.7l0.3,4.6H61.8z"/>
			<path class="st0" d="M73.6,40.1c-0.4-1.1-0.9-2.2-1.3-3.3c-0.4-1.1-0.9-2.2-1.4-3.3h-7.4c0,0-0.1,0.2-0.2,0.4
				c-0.1,0.2-0.2,0.5-0.4,0.9c-0.2,0.3-0.3,0.7-0.5,1.1c-0.2,0.4-0.3,0.8-0.5,1.2c-0.1,0.4-0.3,0.7-0.4,1c-0.1,0.3-0.1,0.5-0.1,0.6
				c0,0.3,0.1,0.5,0.2,0.6c0.2,0.2,0.4,0.3,0.6,0.3c0.2,0.1,0.5,0.1,0.7,0.1c0.2,0,0.5,0,0.6,0v0.4H58v-0.4c0.4,0,0.7-0.1,0.9-0.2
				c0.2-0.1,0.4-0.3,0.6-0.5c0.2-0.2,0.3-0.4,0.4-0.7c0.1-0.3,0.3-0.5,0.4-0.8l7.8-17.8l0.2,0l8.6,20.5H73.6z M67.2,24.7l-3.3,7.7
				h6.6L67.2,24.7z"/>
			<path class="st0" d="M91.8,38.5c-1.3,1.3-3.2,2-5.7,2c-1.1,0-2.2-0.1-3.2-0.4c-1-0.3-1.8-0.7-2.6-1.3c-0.7-0.6-1.3-1.3-1.7-2.2
				c-0.4-0.9-0.6-1.9-0.6-3.1V22.6c0-0.5-0.1-0.9-0.2-1.2c-0.1-0.3-0.3-0.5-0.5-0.7c-0.2-0.2-0.5-0.3-0.8-0.3
				c-0.3,0-0.7-0.1-1.1-0.1v-0.4h8.3v0.4c-0.5,0-0.9,0-1.2,0.1c-0.3,0-0.5,0.1-0.7,0.3c-0.2,0.2-0.3,0.4-0.4,0.7
				c-0.1,0.3-0.2,0.7-0.3,1.2v0v10.8c0,1.8,0.4,3.2,1.3,4.2c0.9,1,2.3,1.5,4.1,1.5c1.1,0,2.1-0.2,2.8-0.5c0.8-0.3,1.4-0.8,1.8-1.4
				c0.5-0.6,0.8-1.4,1-2.2c0.2-0.9,0.3-1.8,0.3-2.8V19.9h1.3v12.8C93.8,35.3,93.1,37.2,91.8,38.5z"/>
			<path class="st0" d="M113.7,40.5c-0.4,0-0.8,0-1.1-0.1c-0.3-0.1-0.6-0.2-0.8-0.3c-0.3-0.1-0.5-0.3-0.7-0.6
				c-0.2-0.2-0.4-0.5-0.7-0.9l-6.1-8.1h-0.8h-1v9.5h-5.6v-0.4c0.3,0,0.6,0,0.9,0c0.3,0,0.6-0.1,0.8-0.2c0.3-0.1,0.5-0.3,0.6-0.5
				c0.1-0.2,0.2-0.6,0.2-1V22.1c0-0.4-0.1-0.7-0.2-0.9c-0.2-0.2-0.4-0.4-0.6-0.5c-0.3-0.1-0.5-0.2-0.8-0.3c-0.3,0-0.6,0-0.9,0v-0.4
				h8.8c0.9,0,1.7,0.1,2.5,0.2c0.8,0.2,1.5,0.4,2.1,0.8c0.6,0.4,1.1,0.9,1.5,1.6c0.4,0.7,0.6,1.5,0.6,2.5c0,0.8-0.1,1.4-0.4,2
				c-0.3,0.6-0.6,1.1-1.1,1.5c-0.4,0.4-1,0.8-1.6,1.1c-0.6,0.3-1.2,0.5-1.9,0.7l5.4,7.2c0.5,0.6,1,1.2,1.5,1.6
				c0.5,0.4,1.2,0.6,2.1,0.6v0.4C115.5,40.4,114.6,40.5,113.7,40.5z M108.6,23.5c-0.2-0.5-0.5-1-0.9-1.4c-0.4-0.4-0.8-0.7-1.4-0.9
				c-0.5-0.2-1.1-0.3-1.8-0.3c-0.4,0-0.7,0-1.1,0.1c-0.4,0.1-0.7,0.2-1,0.4v8.3c0.1,0,0.2,0,0.3,0c0.1,0,0.2,0,0.3,0
				c0.7,0,1.4-0.1,2.1-0.2c0.7-0.1,1.3-0.4,1.9-0.7c0.6-0.3,1-0.8,1.3-1.3c0.3-0.6,0.5-1.3,0.5-2.1C108.9,24.6,108.8,24,108.6,23.5z
				"/>
			<path class="st0" d="M129.5,38.5c-1.3,1.3-3.2,2-5.7,2c-1.1,0-2.2-0.1-3.2-0.4c-1-0.3-1.8-0.7-2.6-1.3c-0.7-0.6-1.3-1.3-1.7-2.2
				c-0.4-0.9-0.6-1.9-0.6-3.1V22.6c0-0.5-0.1-0.9-0.2-1.2c-0.1-0.3-0.3-0.5-0.5-0.7c-0.2-0.2-0.5-0.3-0.8-0.3
				c-0.3,0-0.7-0.1-1.1-0.1v-0.4h8.3v0.4c-0.5,0-0.9,0-1.2,0.1c-0.3,0-0.5,0.1-0.7,0.3c-0.2,0.2-0.3,0.4-0.4,0.7
				c-0.1,0.3-0.2,0.7-0.3,1.2v0v10.8c0,1.8,0.4,3.2,1.3,4.2c0.9,1,2.3,1.5,4.1,1.5c1.1,0,2.1-0.2,2.8-0.5c0.8-0.3,1.4-0.8,1.8-1.4
				c0.5-0.6,0.8-1.4,1-2.2c0.2-0.9,0.3-1.8,0.3-2.8V19.9h1.3v12.8C131.5,35.3,130.8,37.2,129.5,38.5z"/>
			<path class="st0" d="M147.2,37.2c-0.3,0.7-0.8,1.2-1.3,1.7c-0.6,0.5-1.2,0.8-1.9,1.1c-0.7,0.3-1.5,0.4-2.3,0.4
				c-1.2,0-2.3-0.1-3.3-0.4c-1-0.3-2-0.8-2.9-1.5v-4.2h0.5c0.2,1.5,0.8,2.7,1.6,3.6c0.9,0.9,2.1,1.3,3.7,1.3c0.5,0,0.9-0.1,1.4-0.2
				c0.4-0.1,0.8-0.3,1.2-0.6c0.3-0.3,0.6-0.6,0.8-1c0.2-0.4,0.3-0.9,0.3-1.4c0-0.8-0.2-1.6-0.7-2.2c-0.5-0.6-1.1-1.1-1.8-1.6
				c-0.7-0.5-1.5-1-2.3-1.4c-0.8-0.4-1.6-0.9-2.3-1.5c-0.7-0.5-1.3-1.1-1.8-1.8c-0.5-0.7-0.7-1.5-0.7-2.5c0-0.8,0.1-1.5,0.4-2.1
				c0.3-0.6,0.6-1.2,1.1-1.7c0.5-0.5,1-0.9,1.7-1.1c0.6-0.3,1.4-0.4,2.1-0.4c0.4,0,0.8,0,1.2,0.1c0.4,0.1,0.8,0.2,1.1,0.3
				c0.4,0.1,0.7,0.2,1,0.3c0.3,0.1,0.6,0.1,0.9,0.1c0.3,0,0.6-0.1,0.7-0.3c0.2-0.2,0.3-0.4,0.4-0.7h0.5v6.5H146
				c-0.1-0.7-0.2-1.4-0.5-2c-0.3-0.6-0.6-1.2-1-1.7c-0.4-0.5-1-0.9-1.5-1.2c-0.6-0.3-1.3-0.4-2-0.4c-0.4,0-0.8,0.1-1.2,0.2
				c-0.4,0.1-0.7,0.3-1,0.5c-0.3,0.2-0.5,0.5-0.7,0.9c-0.2,0.4-0.3,0.8-0.3,1.2c0,0.8,0.2,1.4,0.7,2c0.5,0.5,1.1,1,1.9,1.5
				c0.7,0.5,1.5,0.9,2.4,1.4c0.9,0.4,1.7,1,2.4,1.5c0.7,0.6,1.4,1.2,1.9,2c0.5,0.8,0.7,1.7,0.7,2.8
				C147.7,35.8,147.5,36.6,147.2,37.2z"/>
		</g>
		<g>
			<path class="st0" d="M16.1,10.1c-1.2,1.3-2.3,2.5-3.5,3.8c-1.5,1.6-5.2,5.7-4.1,8.1c0.5,1.1,1.9,1.5,3,1.8
				c2.8,0.6,5.8,0.9,8.6,1.4c2.5,0.4,5.6,1.4,7.2,3.6c2.6,3.7,0.8,8.5-0.7,12.3c-0.8,2.1-1.8,4.2-2.5,6.4c1.1-3.1,0.6-6.5,0.5-9.7
				c0-1-0.1-2-0.2-3c-0.1-1.1-0.5-2.3-1.5-2.9c-2.6-1.7-7.5-1.4-10.4-1.8c-3.4-0.5-10.5-1.5-10.3-6.4c0.2-6.6,7.8-9.8,12.3-12.7
				C15,10.7,15.7,10.5,16.1,10.1z"/>
			<path class="st0" d="M22.1,49.2L22,48.9c-1.2-2.1-1.9-4.5-2.7-6.8c-0.3-0.9-0.7-1.9-0.9-2.9c-0.3-1.1-0.2-2.3,0.4-3.3
				c0.3-0.6,0.7-1,1.2-1.3c-1.3-0.6-3-0.9-4.7-1.1c-0.7,0-1.2,0-1.3,0.1c-0.2,0.5-0.3,0.7-0.4,1.2c-1.1,4.5,2.4,8.2,5.1,11.1
				c1.1,1.1,2.2,2.3,3.2,3.4l0.1,0.1c0.5,0.5,0.9,1,1.4,1.5C22.9,50.4,22.5,49.8,22.1,49.2z"/>
			<g>
				<path class="st0" d="M26.9,9.9c-0.5-0.2-1.2-0.5-1.6-0.8c1.3,1.2,2.5,2.4,3.8,3.5c1.6,1.5,5.5,5.8,4.9,8.4
					c-0.6,2.5-5.4,4.2-7.1,4.7c1.4,0.6,2.7,1.4,3.5,2.6c0.5,0.7,0.8,1.4,1,2.2c0.7-0.1,3.3-1.3,4-1.7c1.7-1,3.3-2.1,4.2-3.9
					c0.5-1,0.6-2.2,0.5-3.3C39.5,15.1,31.6,12.4,26.9,9.9z"/>
			</g>
		</g>
	</g>
</g>
</svg>
