<svg id="Capa_1" data-name="Capa 1" xmlns="http://www.w3.org/2000/svg" xmlns:xlink="http://www.w3.org/1999/xlink" viewBox="0 0 30 30"><defs><style>.cls-1{fill:url(#linear-gradient);}.cls-2{fill:#acc92e;}</style><linearGradient id="linear-gradient" x1="26.23" y1="10.54" x2="65.2" y2="-1.48" gradientUnits="userSpaceOnUse"><stop offset="0" stop-color="#414e93"/><stop offset="0.02" stop-color="#404f94"/><stop offset="0.31" stop-color="#2f61a1"/><stop offset="0.53" stop-color="#2967a6"/><stop offset="0.81" stop-color="#2b65a5"/><stop offset="0.91" stop-color="#315e9f"/><stop offset="0.98" stop-color="#3d5396"/><stop offset="1" stop-color="#414e93"/></linearGradient></defs><path class="cls-1" d="M11.71,2.42,9.49,4.82c-.93,1-3.3,3.6-2.56,5.14A2.49,2.49,0,0,0,8.8,11.08c1.79.39,3.64.59,5.44.88,1.59.26,3.56.89,4.55,2.3,1.66,2.35.49,5.39-.43,7.75-.52,1.35-1.1,2.67-1.57,4,.67-2,.4-4.08.34-6.12,0-.63,0-1.27-.12-1.9a2.43,2.43,0,0,0-.93-1.82c-1.61-1.06-4.72-.86-6.54-1.14C7.38,14.73,2.93,14.11,3,11c.12-4.14,4.91-6.2,7.74-8A4.84,4.84,0,0,0,11.71,2.42Z"/><path class="cls-2" d="M15.52,27.11,15.43,27a27.09,27.09,0,0,1-1.69-4.27c-.21-.6-.43-1.2-.59-1.81a2.81,2.81,0,0,1,.23-2.11,2.53,2.53,0,0,1,.75-.83,8.7,8.7,0,0,0-3-.69c-.44,0-.76,0-.79.09a2.61,2.61,0,0,0-.27.72c-.67,2.82,1.53,5.19,3.24,7l2.05,2.16,0,.05c.28.31.58.62.85.94A7.75,7.75,0,0,1,15.52,27.11Z"/><path class="cls-2" d="M18.55,2.3a5.15,5.15,0,0,1-1-.53L20,4c1,.92,3.5,3.66,3.11,5.32S19.66,12,18.58,12.25a5,5,0,0,1,2.24,1.66,4.29,4.29,0,0,1,.63,1.4A14.34,14.34,0,0,0,24,14.25a5.82,5.82,0,0,0,2.65-2.47A4.08,4.08,0,0,0,27,9.71C26.47,5.59,21.53,3.88,18.55,2.3Z"/></svg>