<?xml version="1.0" encoding="utf-8"?>
<!-- Generator: Adobe Illustrator 25.4.1, SVG Export Plug-In . SVG Version: 6.00 Build 0)  -->
<svg version="1.1" id="Capa_1" xmlns="http://www.w3.org/2000/svg" xmlns:xlink="http://www.w3.org/1999/xlink" x="0px" y="0px"
	 viewBox="0 0 30 30" style="enable-background:new 0 0 30 30;" xml:space="preserve">
<style type="text/css">
	.st0{fill:#595959;}
</style>
<path class="st0" d="M11.7,2.4L9.5,4.8c-0.9,1-3.3,3.6-2.6,5.1C7.3,10.6,8,11,8.8,11.1c1.8,0.4,3.6,0.6,5.4,0.9
	c1.6,0.3,3.6,0.9,4.6,2.3c1.7,2.4,0.5,5.4-0.4,7.8c-0.5,1.4-1.1,2.7-1.6,4c0.7-2,0.4-4.1,0.3-6.1c0-0.6,0-1.3-0.1-1.9
	c0-0.7-0.4-1.4-0.9-1.8c-1.6-1.1-4.7-0.9-6.5-1.1c-2.2-0.3-6.6-0.9-6.5-4C3.2,7.1,8,5,10.8,3.2C11.1,2.8,11.4,2.7,11.7,2.4z"/>
<path class="st0" d="M15.5,27.1L15.4,27c-0.7-1.4-1.2-2.8-1.7-4.3c-0.2-0.6-0.4-1.2-0.6-1.8c-0.2-0.7-0.1-1.5,0.2-2.1
	c0.2-0.3,0.4-0.6,0.8-0.8c-1-0.4-2-0.6-3-0.7c-0.4,0-0.8,0-0.8,0.1c-0.1,0.2-0.2,0.5-0.3,0.7c-0.7,2.8,1.5,5.2,3.2,7l2.1,2.2l0,0
	c0.3,0.3,0.6,0.6,0.9,0.9C15.9,27.9,15.7,27.5,15.5,27.1z"/>
<path class="st0" d="M18.5,2.3c-0.4-0.1-0.7-0.3-1-0.5L20,4c1,0.9,3.5,3.7,3.1,5.3s-3.5,2.7-4.5,2.9c0.9,0.3,1.7,0.9,2.2,1.7
	c0.3,0.4,0.5,0.9,0.6,1.4c0.9-0.3,1.7-0.6,2.6-1.1c1.1-0.5,2.1-1.4,2.6-2.5c0.3-0.6,0.4-1.4,0.4-2.1C26.5,5.6,21.5,3.9,18.5,2.3z"/>
</svg>
